<svg xmlns="http://www.w3.org/2000/svg" viewBox="0 0 600 400" width="600" height="400">
  <defs>
    <linearGradient id="bg-enfermedad-d" x1="0%" y1="0%" x2="100%" y2="100%"
        gradientTransform="rotate(331)">
      <stop offset="0%" stop-color="hsl(0, 25%, 95%)"/>
      <stop offset="100%" stop-color="hsl(20, 30%, 88%)"/>
    </linearGradient>
  </defs>
  <rect width="600" height="400" fill="url(#bg-enfermedad-d)"/>
  <path d="M0,60 L0,84.7 L40,79.9 L80,63.0 L120,44.3 L160,35.1 L200,41.0 L240,58.4 L280,76.8 L320,85.0 L360,78.0 L400,60.1 L440,42.1 L480,35.0 L520,43.0 L560,61.3 L600,78.8 L600,400 L0,400 Z" fill="hsl(0, 40%, 70%)" opacity="0.06"/><path d="M0,160 L0,183.1 L40,157.3 L80,133.1 L120,125.2 L160,138.5 L200,164.8 L240,188.2 L280,194.5 L320,179.9 L360,153.2 L400,130.6 L440,125.9 L480,141.8 L520,168.8 L560,190.4 L600,193.6 L600,400 L0,400 Z" fill="hsl(15, 40%, 70%)" opacity="0.10"/><path d="M0,260 L0,247.6 L40,220.3 L80,217.1 L120,239.9 L160,274.9 L200,300.8 L240,302.0 L280,277.7 L320,242.7 L360,218.1 L400,219.0 L440,244.7 L480,279.7 L520,302.8 L560,299.9 L600,272.8 L600,400 L0,400 Z" fill="hsl(30, 40%, 70%)" opacity="0.14"/><path d="M0,360 L0,307.3 L40,311.9 L80,345.7 L120,388.1 L160,413.5 L200,406.4 L240,371.2 L280,329.2 L320,305.8 L360,315.4 L400,352.0 L440,393.4 L480,414.6 L520,402.7 L560,364.8 L600,324.1 L600,400 L0,400 Z" fill="hsl(45, 40%, 70%)" opacity="0.18"/><line x1="71" y1="0" x2="600" y2="379" stroke="hsl(0, 30%, 80%)" stroke-width="2" opacity="0.08"/>
</svg>