<svg xmlns="http://www.w3.org/2000/svg" viewBox="0 0 1200 400" width="1200" height="400">
  <defs>
    <linearGradient id="hero-bg" x1="0%" y1="0%" x2="100%" y2="100%">
      <stop offset="0%" stop-color="hsl(140, 20%, 97%)"/>
      <stop offset="100%" stop-color="hsl(155, 25%, 90%)"/>
    </linearGradient>
  </defs>
  <rect width="1200" height="400" fill="url(#hero-bg)"/>
  <path d="M0,78 L0,79.5 L30,74.2 L60,64.0 L90,51.1 L120,37.9 L150,27.2 L180,21.0 L210,20.6 L240,26.0 L270,36.2 L300,49.2 L330,62.3 L360,73.0 L390,79.1 L420,79.4 L450,73.9 L480,63.6 L510,50.6 L540,37.5 L570,26.9 L600,20.9 L630,20.7 L660,26.3 L690,36.6 L720,49.7 L750,62.7 L780,73.3 L810,79.2 L840,79.3 L870,73.6 L900,63.1 L930,50.1 L960,37.0 L990,26.6 L1020,20.7 L1050,20.8 L1080,26.6 L1110,37.1 L1140,50.2 L1170,63.2 L1200,73.6 L1200,400 L0,400 Z" fill="hsl(140, 35%, 75%)" opacity="0.06"/><path d="M0,164 L0,164.4 L30,173.6 L60,174.1 L90,165.8 L120,150.4 L150,131.0 L180,111.3 L210,95.4 L240,86.3 L270,86.0 L300,94.4 L330,109.9 L360,129.4 L390,149.0 L420,164.9 L450,173.8 L480,174.0 L510,165.4 L540,149.8 L570,130.2 L600,110.6 L630,94.9 L660,86.1 L690,86.1 L720,94.9 L750,110.6 L780,130.2 L810,149.7 L840,165.4 L870,173.9 L900,173.8 L930,164.9 L960,149.1 L990,129.5 L1020,109.9 L1050,94.4 L1080,86.0 L1110,86.3 L1140,95.3 L1170,111.3 L1200,130.9 L1200,400 L0,400 Z" fill="hsl(152, 35%, 75%)" opacity="0.09"/><path d="M0,247 L0,235.3 L30,256.4 L60,268.3 L90,268.6 L120,257.2 L150,236.5 L180,210.4 L210,184.3 L240,163.2 L270,151.5 L300,151.5 L330,163.1 L360,184.0 L390,210.1 L420,236.2 L450,257.1 L480,268.6 L510,268.4 L540,256.6 L570,235.5 L600,209.4 L630,183.4 L660,162.6 L690,151.3 L720,151.7 L750,163.7 L780,184.9 L810,211.1 L840,237.1 L870,257.7 L900,268.8 L930,268.2 L960,256.0 L990,234.6 L1020,208.4 L1050,182.5 L1080,162.0 L1110,151.1 L1140,152.0 L1170,164.4 L1200,185.8 L1200,400 L0,400 Z" fill="hsl(164, 35%, 75%)" opacity="0.12"/><path d="M0,308 L0,364.3 L30,352.4 L60,328.0 L90,296.1 L120,263.0 L150,235.2 L180,218.4 L210,215.8 L240,228.0 L270,252.5 L300,284.5 L330,317.6 L360,345.2 L390,361.8 L420,364.1 L450,351.6 L480,326.9 L510,294.9 L540,261.8 L570,234.4 L600,218.0 L630,216.0 L660,228.7 L690,253.6 L720,285.8 L750,318.8 L780,346.0 L810,362.1 L840,363.9 L870,350.9 L900,325.8 L930,293.6 L960,260.7 L990,233.6 L1020,217.7 L1050,216.2 L1080,229.5 L1110,254.7 L1140,287.0 L1170,319.9 L1200,346.9 L1200,400 L0,400 Z" fill="hsl(176, 35%, 75%)" opacity="0.15"/><path d="M0,399 L0,437.9 L30,456.8 L60,458.5 L90,442.5 L120,412.1 L150,373.3 L180,333.8 L210,301.6 L240,283.0 L270,281.7 L300,298.0 L330,328.6 L360,367.5 L390,406.8 L420,438.9 L450,457.2 L480,458.2 L510,441.6 L540,410.7 L570,371.8 L600,332.5 L630,300.6 L660,282.6 L690,282.0 L720,298.9 L750,329.9 L780,369.0 L810,408.2 L840,439.9 L870,457.6 L900,457.9 L930,440.7 L960,409.4 L990,370.3 L1020,331.1 L1050,299.7 L1080,282.2 L1110,282.3 L1140,299.8 L1170,331.3 L1200,370.5 L1200,400 L0,400 Z" fill="hsl(188, 35%, 75%)" opacity="0.18"/><circle cx="668" cy="314" r="33" fill="hsl(140, 40%, 80%)" opacity="0.08"/><circle cx="658" cy="229" r="32" fill="hsl(150, 40%, 80%)" opacity="0.11"/><circle cx="457" cy="128" r="44" fill="hsl(160, 40%, 80%)" opacity="0.14"/><circle cx="332" cy="146" r="22" fill="hsl(140, 40%, 80%)" opacity="0.17"/><circle cx="516" cy="238" r="29" fill="hsl(150, 40%, 80%)" opacity="0.20"/><circle cx="539" cy="249" r="31" fill="hsl(160, 40%, 80%)" opacity="0.23"/><rect x="60" y="140" width="160" height="32" rx="16" fill="hsl(140, 50%, 40%)" opacity="0.9"/><text x="140" y="161" text-anchor="middle" font-family="Arial,sans-serif" font-size="13" font-weight="bold" fill="#fff" letter-spacing="1">PLANTAS MEDICINALES</text><text x="60" y="220" font-family="Georgia,serif" font-size="32" fill="hsl(140, 30%, 20%)" font-weight="bold">Berberina reduce grasa visceral en</text><text x="60" y="262" font-family="Georgia,serif" font-size="32" fill="hsl(140, 30%, 20%)" font-weight="bold">personas con obesidad: ensayo ...</text><text x="1140" y="380" text-anchor="end" font-family="Georgia,serif" font-size="14" fill="hsl(140, 20%, 60%)" opacity="0.5">Botánica Andina</text>
</svg>