<svg xmlns="http://www.w3.org/2000/svg" viewBox="0 0 1200 400" width="1200" height="400">
  <defs>
    <linearGradient id="hero-bg" x1="0%" y1="0%" x2="100%" y2="100%">
      <stop offset="0%" stop-color="hsl(0, 20%, 97%)"/>
      <stop offset="100%" stop-color="hsl(15, 25%, 90%)"/>
    </linearGradient>
  </defs>
  <rect width="1200" height="400" fill="url(#hero-bg)"/>
  <path d="M0,61 L0,62.0 L30,48.8 L60,35.9 L90,25.8 L120,20.5 L150,21.1 L180,27.4 L210,38.2 L240,51.4 L270,64.3 L300,74.3 L330,79.5 L360,78.9 L390,72.4 L420,61.5 L450,48.3 L480,35.5 L510,25.5 L540,20.4 L570,21.2 L600,27.7 L630,38.7 L660,51.9 L690,64.7 L720,74.6 L750,79.6 L780,78.7 L810,72.1 L840,61.1 L870,47.8 L900,35.0 L930,25.2 L960,20.3 L990,21.4 L1020,28.1 L1050,39.2 L1080,52.4 L1110,65.2 L1140,74.9 L1170,79.7 L1200,78.6 L1200,400 L0,400 Z" fill="hsl(0, 35%, 75%)" opacity="0.06"/><path d="M0,135 L0,174.1 L30,173.7 L60,164.6 L90,148.6 L120,128.9 L150,109.5 L180,94.1 L210,85.9 L240,86.4 L270,95.7 L300,111.7 L330,131.4 L360,150.9 L390,166.1 L420,174.2 L450,173.5 L480,164.1 L510,147.9 L540,128.2 L570,108.8 L600,93.7 L630,85.7 L660,86.6 L690,96.2 L720,112.4 L750,132.2 L780,151.5 L810,166.6 L840,174.3 L870,173.3 L900,163.6 L930,147.2 L960,127.4 L990,108.1 L1020,93.2 L1050,85.6 L1080,86.8 L1110,96.7 L1140,113.1 L1170,132.9 L1200,152.2 L1200,400 L0,400 Z" fill="hsl(12, 35%, 75%)" opacity="0.09"/><path d="M0,232 L0,259.4 L30,239.6 L60,214.0 L90,187.6 L120,165.6 L150,152.5 L180,150.8 L210,160.9 L240,180.8 L270,206.5 L300,232.9 L330,254.8 L360,267.7 L390,269.1 L420,258.8 L450,238.8 L480,213.0 L510,186.6 L540,164.9 L570,152.2 L600,151.0 L630,161.5 L660,181.7 L690,207.5 L720,233.8 L750,255.4 L780,267.9 L810,268.9 L840,258.2 L870,237.9 L900,212.0 L930,185.7 L960,164.3 L990,151.9 L1020,151.2 L1050,162.1 L1080,182.6 L1110,208.5 L1140,234.8 L1170,256.1 L1200,268.2 L1200,400 L0,400 Z" fill="hsl(24, 35%, 75%)" opacity="0.12"/><path d="M0,301 L0,329.9 L30,298.4 L60,265.1 L90,236.8 L120,219.1 L150,215.5 L180,226.8 L210,250.6 L240,282.3 L270,315.5 L300,343.6 L330,361.1 L360,364.4 L390,352.9 L420,328.9 L450,297.1 L480,263.9 L510,235.9 L540,218.7 L570,215.7 L600,227.4 L630,251.7 L660,283.5 L690,316.7 L720,344.5 L750,361.5 L780,364.2 L810,352.2 L840,327.8 L870,295.8 L900,262.7 L930,235.1 L960,218.3 L990,215.9 L1020,228.2 L1050,252.8 L1080,284.8 L1110,317.8 L1140,345.4 L1170,361.9 L1200,364.0 L1200,400 L0,400 Z" fill="hsl(36, 35%, 75%)" opacity="0.15"/><path d="M0,395 L0,456.5 L30,458.7 L60,443.3 L90,413.3 L120,374.6 L150,335.1 L180,302.5 L210,283.3 L240,281.4 L270,297.2 L300,327.4 L330,366.1 L360,405.6 L390,438.0 L420,456.9 L450,458.4 L480,442.4 L510,411.9 L540,373.1 L570,333.7 L600,301.5 L630,282.9 L660,281.7 L690,298.0 L720,328.7 L750,367.6 L780,407.0 L810,439.0 L840,457.3 L870,458.2 L900,441.5 L930,410.6 L960,371.6 L990,332.3 L1020,300.5 L1050,282.6 L1080,282.0 L1110,299.0 L1140,330.1 L1170,369.1 L1200,408.4 L1200,400 L0,400 Z" fill="hsl(48, 35%, 75%)" opacity="0.18"/><circle cx="931" cy="125" r="46" fill="hsl(0, 40%, 80%)" opacity="0.08"/><circle cx="891" cy="265" r="47" fill="hsl(10, 40%, 80%)" opacity="0.11"/><circle cx="886" cy="103" r="60" fill="hsl(20, 40%, 80%)" opacity="0.14"/><circle cx="885" cy="262" r="51" fill="hsl(0, 40%, 80%)" opacity="0.17"/><circle cx="385" cy="252" r="36" fill="hsl(10, 40%, 80%)" opacity="0.20"/><circle cx="723" cy="101" r="57" fill="hsl(20, 40%, 80%)" opacity="0.23"/><rect x="60" y="140" width="160" height="32" rx="16" fill="hsl(0, 50%, 40%)" opacity="0.9"/><text x="140" y="161" text-anchor="middle" font-family="Arial,sans-serif" font-size="13" font-weight="bold" fill="#fff" letter-spacing="1">SALUD PÚBLICA</text><text x="60" y="220" font-family="Georgia,serif" font-size="32" fill="hsl(0, 30%, 20%)" font-weight="bold">Enfermedad de Chagas: cardiomiopatía</text><text x="60" y="262" font-family="Georgia,serif" font-size="32" fill="hsl(0, 30%, 20%)" font-weight="bold">chagásica tiene peor pronóst...</text><text x="1140" y="380" text-anchor="end" font-family="Georgia,serif" font-size="14" fill="hsl(0, 20%, 60%)" opacity="0.5">Botánica Andina</text>
</svg>