<svg xmlns="http://www.w3.org/2000/svg" viewBox="0 0 1200 400" width="1200" height="400">
  <defs>
    <linearGradient id="hero-bg" x1="0%" y1="0%" x2="100%" y2="100%">
      <stop offset="0%" stop-color="hsl(140, 20%, 97%)"/>
      <stop offset="100%" stop-color="hsl(155, 25%, 90%)"/>
    </linearGradient>
  </defs>
  <rect width="1200" height="400" fill="url(#hero-bg)"/>
  <path d="M0,60 L0,62.0 L30,48.8 L60,35.9 L90,25.8 L120,20.5 L150,21.1 L180,27.4 L210,38.2 L240,51.4 L270,64.3 L300,74.3 L330,79.5 L360,78.9 L390,72.4 L420,61.5 L450,48.3 L480,35.5 L510,25.5 L540,20.4 L570,21.2 L600,27.7 L630,38.7 L660,51.9 L690,64.7 L720,74.6 L750,79.6 L780,78.7 L810,72.1 L840,61.1 L870,47.8 L900,35.0 L930,25.2 L960,20.3 L990,21.4 L1020,28.1 L1050,39.2 L1080,52.4 L1110,65.2 L1140,74.9 L1170,79.7 L1200,78.6 L1200,400 L0,400 Z" fill="hsl(140, 35%, 75%)" opacity="0.06"/><path d="M0,135 L0,142.3 L30,122.2 L60,103.7 L90,90.5 L120,85.1 L150,88.6 L180,100.4 L210,118.1 L240,138.1 L270,156.6 L300,169.7 L330,175.0 L360,171.3 L390,159.3 L420,141.6 L450,121.5 L480,103.1 L510,90.1 L540,85.0 L570,88.9 L600,101.0 L630,118.8 L660,138.9 L690,157.2 L720,170.1 L750,175.0 L780,170.9 L810,158.7 L840,140.8 L870,120.7 L900,102.5 L930,89.8 L960,85.0 L990,89.2 L1020,101.5 L1050,119.5 L1080,139.6 L1110,157.8 L1140,170.4 L1170,175.0 L1200,170.6 L1200,400 L0,400 Z" fill="hsl(152, 35%, 75%)" opacity="0.09"/><path d="M0,232 L0,269.4 L30,267.2 L60,253.7 L90,231.5 L120,205.0 L150,179.5 L180,160.1 L210,150.6 L240,152.9 L270,166.6 L300,189.0 L330,215.5 L360,240.9 L390,260.2 L420,269.5 L450,266.9 L480,253.0 L510,230.6 L540,204.0 L570,178.6 L600,159.5 L630,150.4 L660,153.2 L690,167.3 L720,189.9 L750,216.5 L780,241.8 L810,260.8 L840,269.6 L870,266.6 L900,252.3 L930,229.6 L960,203.0 L990,177.8 L1020,159.0 L1050,150.3 L1080,153.6 L1110,168.0 L1140,190.9 L1170,217.5 L1200,242.7 L1200,400 L0,400 Z" fill="hsl(164, 35%, 75%)" opacity="0.12"/><path d="M0,321 L0,338.6 L30,358.6 L60,365.0 L90,356.4 L120,334.6 L150,303.9 L180,270.5 L210,240.9 L240,221.1 L270,215.1 L300,223.9 L330,245.9 L360,276.7 L390,310.1 L420,339.6 L450,359.1 L480,364.9 L510,355.8 L540,333.6 L570,302.7 L600,269.3 L630,240.0 L660,220.6 L690,215.1 L720,224.5 L750,247.0 L780,277.9 L810,311.3 L840,340.5 L870,359.6 L900,364.8 L930,355.2 L960,332.5 L990,301.4 L1020,268.0 L1050,239.0 L1080,220.2 L1110,215.2 L1140,225.1 L1170,248.0 L1200,279.2 L1200,400 L0,400 Z" fill="hsl(176, 35%, 75%)" opacity="0.15"/><path d="M0,385 L0,400.4 L30,434.2 L60,455.3 L90,459.3 L120,445.6 L150,416.8 L180,378.7 L210,338.9 L240,305.2 L270,284.5 L300,280.8 L330,294.8 L360,323.9 L390,362.1 L420,401.9 L450,435.3 L480,455.7 L510,459.1 L540,444.7 L570,415.5 L600,377.2 L630,337.4 L660,304.2 L690,284.0 L720,281.0 L750,295.7 L780,325.2 L810,363.6 L840,403.3 L870,436.3 L900,456.2 L930,458.9 L960,443.9 L990,414.2 L1020,375.7 L1050,336.0 L1080,303.2 L1110,283.6 L1140,281.2 L1170,296.6 L1200,326.5 L1200,400 L0,400 Z" fill="hsl(188, 35%, 75%)" opacity="0.18"/><circle cx="930" cy="285" r="45" fill="hsl(140, 40%, 80%)" opacity="0.08"/><circle cx="391" cy="255" r="47" fill="hsl(150, 40%, 80%)" opacity="0.11"/><circle cx="623" cy="131" r="60" fill="hsl(160, 40%, 80%)" opacity="0.14"/><circle cx="352" cy="236" r="38" fill="hsl(140, 40%, 80%)" opacity="0.17"/><circle cx="519" cy="159" r="20" fill="hsl(150, 40%, 80%)" opacity="0.20"/><circle cx="239" cy="179" r="41" fill="hsl(160, 40%, 80%)" opacity="0.23"/><rect x="60" y="140" width="160" height="32" rx="16" fill="hsl(140, 50%, 40%)" opacity="0.9"/><text x="140" y="161" text-anchor="middle" font-family="Arial,sans-serif" font-size="13" font-weight="bold" fill="#fff" letter-spacing="1">PLANTAS MEDICINALES</text><text x="60" y="220" font-family="Georgia,serif" font-size="32" fill="hsl(140, 30%, 20%)" font-weight="bold">Cúrcuma, berberina y resveratrol</text><text x="60" y="262" font-family="Georgia,serif" font-size="32" fill="hsl(140, 30%, 20%)" font-weight="bold">muestran potencial para el síndr...</text><text x="1140" y="380" text-anchor="end" font-family="Georgia,serif" font-size="14" fill="hsl(140, 20%, 60%)" opacity="0.5">Botánica Andina</text>
</svg>