<svg xmlns="http://www.w3.org/2000/svg" viewBox="0 0 1200 400" width="1200" height="400">
  <defs>
    <linearGradient id="hero-bg" x1="0%" y1="0%" x2="100%" y2="100%">
      <stop offset="0%" stop-color="hsl(35, 20%, 97%)"/>
      <stop offset="100%" stop-color="hsl(50, 25%, 90%)"/>
    </linearGradient>
  </defs>
  <rect width="1200" height="400" fill="url(#hero-bg)"/>
  <path d="M0,74 L0,65.4 L30,75.1 L60,79.7 L90,78.5 L120,71.6 L150,60.3 L180,47.1 L210,34.4 L240,24.8 L270,20.2 L300,21.6 L330,28.6 L360,39.9 L390,53.2 L420,65.9 L450,75.4 L480,79.8 L510,78.3 L540,71.2 L570,59.9 L600,46.6 L630,33.9 L660,24.5 L690,20.2 L720,21.8 L750,29.0 L780,40.4 L810,53.7 L840,66.3 L870,75.6 L900,79.9 L930,78.2 L960,70.8 L990,59.4 L1020,46.1 L1050,33.5 L1080,24.2 L1110,20.1 L1140,21.9 L1170,29.3 L1200,40.9 L1200,400 L0,400 Z" fill="hsl(35, 35%, 75%)" opacity="0.06"/><path d="M0,162 L0,174.1 L30,165.8 L60,150.4 L90,131.0 L120,111.3 L150,95.4 L180,86.3 L210,86.0 L240,94.4 L270,109.9 L300,129.4 L330,149.0 L360,164.9 L390,173.8 L420,174.0 L450,165.4 L480,149.8 L510,130.2 L540,110.6 L570,94.9 L600,86.1 L630,86.1 L660,94.9 L690,110.6 L720,130.2 L750,149.7 L780,165.4 L810,173.9 L840,173.8 L870,164.9 L900,149.1 L930,129.5 L960,109.9 L990,94.4 L1020,86.0 L1050,86.3 L1080,95.3 L1110,111.3 L1140,130.9 L1170,150.4 L1200,165.8 L1200,400 L0,400 Z" fill="hsl(47, 35%, 75%)" opacity="0.09"/><path d="M0,246 L0,251.2 L30,228.1 L60,201.4 L90,176.4 L120,158.2 L150,150.2 L180,154.1 L210,169.2 L240,192.4 L270,219.1 L300,244.0 L330,262.1 L360,269.9 L390,265.7 L420,250.4 L450,227.1 L480,200.4 L510,175.6 L540,157.7 L570,150.1 L600,154.5 L630,169.9 L660,193.3 L690,220.1 L720,244.8 L750,262.6 L780,269.9 L810,265.3 L840,249.7 L870,226.2 L900,199.4 L930,174.8 L960,157.2 L990,150.1 L1020,154.9 L1050,170.7 L1080,194.3 L1110,221.1 L1140,245.6 L1170,263.1 L1200,270.0 L1200,400 L0,400 Z" fill="hsl(59, 35%, 75%)" opacity="0.12"/><path d="M0,328 L0,323.1 L30,290.5 L60,257.8 L90,231.6 L120,216.9 L150,216.9 L180,231.3 L210,257.5 L240,290.1 L270,322.7 L300,348.8 L330,363.2 L360,363.0 L390,348.3 L420,321.9 L450,289.2 L480,256.7 L510,230.8 L540,216.7 L570,217.1 L600,232.1 L630,258.6 L660,291.4 L690,323.9 L720,349.6 L750,363.5 L780,362.7 L810,347.5 L840,320.8 L870,288.0 L900,255.6 L930,230.0 L960,216.4 L990,217.4 L1020,232.9 L1050,259.8 L1080,292.7 L1110,325.0 L1140,350.4 L1170,363.7 L1200,362.4 L1200,400 L0,400 Z" fill="hsl(71, 35%, 75%)" opacity="0.15"/><path d="M0,409 L0,457.5 L30,457.9 L60,440.9 L90,409.7 L120,370.6 L150,331.4 L180,299.9 L210,282.3 L240,282.2 L270,299.6 L300,331.0 L330,370.2 L360,409.3 L390,440.6 L420,457.9 L450,457.6 L480,439.9 L510,408.3 L540,369.1 L570,330.0 L600,298.9 L630,282.0 L660,282.6 L690,300.6 L720,332.4 L750,371.7 L780,410.6 L810,441.5 L840,458.2 L870,457.3 L900,439.0 L930,406.9 L960,367.6 L990,328.7 L1020,298.0 L1050,281.7 L1080,282.9 L1110,301.5 L1140,333.7 L1170,373.2 L1200,412.0 L1200,400 L0,400 Z" fill="hsl(83, 35%, 75%)" opacity="0.18"/><circle cx="344" cy="152" r="59" fill="hsl(35, 40%, 80%)" opacity="0.08"/><circle cx="918" cy="119" r="51" fill="hsl(45, 40%, 80%)" opacity="0.11"/><circle cx="489" cy="144" r="24" fill="hsl(55, 40%, 80%)" opacity="0.14"/><circle cx="236" cy="178" r="54" fill="hsl(35, 40%, 80%)" opacity="0.17"/><circle cx="904" cy="272" r="37" fill="hsl(45, 40%, 80%)" opacity="0.20"/><circle cx="688" cy="164" r="33" fill="hsl(55, 40%, 80%)" opacity="0.23"/><rect x="60" y="140" width="160" height="32" rx="16" fill="hsl(35, 50%, 40%)" opacity="0.9"/><text x="140" y="161" text-anchor="middle" font-family="Arial,sans-serif" font-size="13" font-weight="bold" fill="#fff" letter-spacing="1">NUTRICIÓN</text><text x="60" y="220" font-family="Georgia,serif" font-size="32" fill="hsl(35, 30%, 20%)" font-weight="bold">Quinoa mejora biomarcadores metabólicos</text><text x="60" y="262" font-family="Georgia,serif" font-size="32" fill="hsl(35, 30%, 20%)" font-weight="bold">en estudio clínico de inm...</text><text x="1140" y="380" text-anchor="end" font-family="Georgia,serif" font-size="14" fill="hsl(35, 20%, 60%)" opacity="0.5">Botánica Andina</text>
</svg>